<?xml version="1.0" encoding="UTF-8" standalone="no"?>
<!DOCTYPE svg PUBLIC "-//W3C//DTD SVG 1.1//EN" "http://www.w3.org/Graphics/SVG/1.1/DTD/svg11.dtd">
<svg width="100%" height="100%" viewBox="0 0 47 97" version="1.1" xmlns="http://www.w3.org/2000/svg" xmlns:xlink="http://www.w3.org/1999/xlink" xml:space="preserve" xmlns:serif="http://www.serif.com/" style="fill-rule:evenodd;clip-rule:evenodd;stroke-linejoin:round;stroke-miterlimit:2;">
    <path d="M3.058,12.465C2.492,11.9 2.174,11.133 2.174,10.334C2.174,9.534 2.492,8.767 3.058,8.202C14.001,-2.734 32.003,-2.734 42.946,8.202C43.511,8.767 43.829,9.535 43.829,10.334C43.821,11.984 42.465,13.34 40.815,13.348C40.016,13.348 39.248,13.03 38.683,12.465C30.078,3.869 15.926,3.869 7.321,12.465C6.756,13.031 5.989,13.349 5.19,13.349C4.39,13.349 3.623,13.031 3.058,12.465ZM11.96,15.644C11.461,16.198 11.184,16.917 11.184,17.663C11.192,19.313 12.547,20.667 14.197,20.675C14.946,20.675 15.669,20.396 16.223,19.892C19.944,16.178 26.06,16.178 29.781,19.892C30.343,20.457 31.108,20.777 31.905,20.78C32.707,20.781 33.478,20.461 34.044,19.892C35.196,18.721 35.196,16.815 34.044,15.644C31.118,12.715 27.143,11.066 23.002,11.066C18.862,11.066 14.887,12.714 11.96,15.644ZM46.004,51.796L46.004,73.352C46.004,85.971 35.621,96.354 23.002,96.354C10.384,96.354 0,85.971 0,73.352L0,51.796C0,39.178 10.384,28.794 23.002,28.794C35.621,28.794 46.004,39.178 46.004,51.796ZM39.979,51.796C39.979,42.483 32.315,34.82 23.002,34.82C13.689,34.82 6.025,42.483 6.025,51.796L6.025,73.352C6.025,82.665 13.689,90.329 23.002,90.329C32.315,90.329 39.979,82.665 39.979,73.352L39.979,51.796ZM23.002,41.508C21.352,41.516 19.997,42.871 19.989,44.521L19.989,55.969C19.997,57.619 21.352,58.974 23.002,58.982C24.652,58.974 26.007,57.619 26.015,55.969L26.015,44.521C26.007,42.871 24.652,41.516 23.002,41.508Z" style="fill:white;fill-rule:nonzero;"/>
</svg>
