<?xml version="1.0" encoding="UTF-8" standalone="no"?>
<!DOCTYPE svg PUBLIC "-//W3C//DTD SVG 1.1//EN" "http://www.w3.org/Graphics/SVG/1.1/DTD/svg11.dtd">
<svg width="100%" height="100%" viewBox="0 0 13 10" version="1.1" xmlns="http://www.w3.org/2000/svg" xmlns:xlink="http://www.w3.org/1999/xlink" xml:space="preserve" xmlns:serif="http://www.serif.com/" style="fill-rule:evenodd;clip-rule:evenodd;stroke-linejoin:round;stroke-miterlimit:2;">
    <g transform="matrix(0.152314,0,0,0.152314,-1.21851,-2.39382)">
        <path d="M12,52L74.344,52L52.888,73.456C51.326,75.018 51.326,77.551 52.887,79.112C54.449,80.674 56.983,80.674 58.545,79.112L86.828,50.828C87.014,50.642 87.18,50.437 87.326,50.219C87.393,50.118 87.44,50.009 87.498,49.904C87.564,49.78 87.64,49.662 87.693,49.531C87.75,49.396 87.782,49.256 87.822,49.116C87.855,49.005 87.898,48.899 87.921,48.785C87.973,48.525 88,48.263 88,48C88,47.997 87.999,47.994 87.999,47.991C87.998,47.732 87.972,47.472 87.921,47.217C87.897,47.097 87.852,46.986 87.817,46.868C87.778,46.735 87.748,46.6 87.694,46.471C87.636,46.332 87.558,46.206 87.486,46.075C87.432,45.977 87.389,45.877 87.327,45.783C87.181,45.562 87.013,45.356 86.826,45.169L58.544,16.888C56.982,15.326 54.449,15.326 52.887,16.887C51.325,18.449 51.325,20.982 52.887,22.545L74.343,44L12,44C9.791,44 8,45.791 8,48C8,50.209 9.791,52 12,52Z" style="fill:rgb(67,153,208);fill-rule:nonzero;"/>
    </g>
</svg>
