<?xml version="1.0" encoding="UTF-8" standalone="no"?><!DOCTYPE svg PUBLIC "-//W3C//DTD SVG 1.1//EN" "http://www.w3.org/Graphics/SVG/1.1/DTD/svg11.dtd"><svg width="100%" height="100%" viewBox="0 0 109 154" version="1.1" xmlns="http://www.w3.org/2000/svg" xmlns:xlink="http://www.w3.org/1999/xlink" xml:space="preserve" xmlns:serif="http://www.serif.com/" style="fill-rule:evenodd;clip-rule:evenodd;stroke-linejoin:round;stroke-miterlimit:2;"><path d="M89.879,61.352c-4.69,5.689 -11.273,8.574 -19.562,8.574l-46.683,0l0,72.004l-11.915,0l-0,-83.772l56.601,0c4.956,0 9.294,-1.93 12.219,-5.435c2.472,-2.964 3.834,-6.934 3.834,-11.182c0,-8.706 -6.005,-17.712 -16.053,-17.712l-56.601,-0l-0,-12.11l58.598,-0c17.958,-0 26.137,15.391 26.137,29.688c-0,7.719 -2.335,14.801 -6.575,19.945m-54.526,20.295l10.159,0l-0,60.283l-10.159,0l0,-60.283Zm34.964,-81.647l-70.317,-0l-0,35.55l68.32,-0c3.157,-0 4.333,3.674 4.333,5.991c-0,1.488 -0.405,2.827 -1.113,3.676c-0.438,0.524 -1.25,1.222 -3.22,1.222l-68.32,0l-0,106.878l57.23,-0l0,-71.67l13.087,0c11.788,0 21.679,-4.442 28.606,-12.841c5.965,-7.236 9.25,-16.965 9.25,-27.399c-0,-20.576 -13.005,-41.407 -37.856,-41.407" style="fill:#0d2f3f;fill-rule:nonzero;"/></svg>