<?xml version="1.0" encoding="UTF-8" standalone="no"?>
<!DOCTYPE svg PUBLIC "-//W3C//DTD SVG 1.1//EN" "http://www.w3.org/Graphics/SVG/1.1/DTD/svg11.dtd">
<svg width="100%" height="100%" viewBox="0 0 1080 1080" version="1.1" xmlns="http://www.w3.org/2000/svg" xmlns:xlink="http://www.w3.org/1999/xlink" xml:space="preserve" xmlns:serif="http://www.serif.com/" style="fill-rule:evenodd;clip-rule:evenodd;stroke-linejoin:round;stroke-miterlimit:2;">
    <g transform="matrix(12.5722,0,0,12.5722,768.934,637.9)">
        <path d="M0,-15.574C-2.386,-12.68 -5.735,-11.212 -9.952,-11.212L-33.702,-11.212L-33.702,25.42L-39.764,25.42L-39.764,-17.199L-10.968,-17.199C-8.447,-17.199 -6.24,-18.181 -4.752,-19.964C-3.494,-21.472 -2.801,-23.492 -2.801,-25.653C-2.801,-30.082 -5.856,-34.664 -10.968,-34.664L-39.764,-34.664L-39.764,-40.825L-9.952,-40.825C-0.816,-40.825 3.345,-32.995 3.345,-25.721C3.345,-21.794 2.157,-18.191 0,-15.574M-27.74,-5.249L-22.572,-5.249L-22.572,25.42L-27.74,25.42L-27.74,-5.249ZM-9.952,-46.787L-45.726,-46.787L-45.726,-28.701L-10.968,-28.701C-9.362,-28.701 -8.764,-26.832 -8.764,-25.653C-8.764,-24.896 -8.97,-24.215 -9.33,-23.783C-9.553,-23.516 -9.966,-23.161 -10.968,-23.161L-45.726,-23.161L-45.726,31.213L-16.61,31.213L-16.61,-5.249L-9.952,-5.249C-3.955,-5.249 1.077,-7.509 4.601,-11.782C7.636,-15.463 9.307,-20.413 9.307,-25.721C9.307,-36.189 2.691,-46.787 -9.952,-46.787" style="fill:white;fill-rule:nonzero;"/>
    </g>
</svg>
